#tb 0: 1/30
#media_type 0: video
#codec_id 0: rawvideo
#dimensions 0: 720x480
#sar 0: 8/9
0,          0,          0,        1,   518400, 0x354b6fc3
0,          1,          1,        1,   518400, 0xd86f281b
0,          2,          2,        1,   518400, 0xdd2e2b38
0,          3,          3,        1,   518400, 0x589535d4
0,          4,          4,        1,   518400, 0x3f8f02b6
0,          5,          5,        1,   518400, 0xa81b246a
0,          6,          6,        1,   518400, 0xb98dd9f7
